<svg display="none" xmlns="http://www.w3.org/2000/svg">
      <symbol id="arrow-left" viewBox="-4.5 0 20 20">
        <g fill="currentColor" stroke-width="0">
        </g>
        <g stroke-linecap="round" stroke-linejoin="round">
        </g>
        <g transform="translate(-345.000000, -6679.000000)" fill="currentColor">
          <g transform="translate(56.000000, 160.000000)">
            <path d="M299.633777,6519.29231 L299.633777,6519.29231 C299.228878,6518.90256 298.573377,6518.90256 298.169513,6519.29231 L289.606572,6527.55587 C288.797809,6528.33636 288.797809,6529.60253 289.606572,6530.38301 L298.231646,6538.70754 C298.632403,6539.09329 299.27962,6539.09828 299.685554,6538.71753 L299.685554,6538.71753 C300.100809,6538.32879 300.104951,6537.68821 299.696945,6537.29347 L291.802968,6529.67648 C291.398069,6529.28574 291.398069,6528.65315 291.802968,6528.26241 L299.633777,6520.70538 C300.038676,6520.31563 300.038676,6519.68305 299.633777,6519.29231">
            </path>
          </g> 
        </g> 
      </symbol>
      
      <symbol id="arrow-right" viewBox="-4.5 0 20 20">
        <g fill="currentColor" stroke-width="0">
        </g>
        <g stroke-linecap="round" stroke-linejoin="round">
        </g>
        <g transform="translate(-305.000000, -6679.000000)" fill="currentColor">
          <g transform="translate(56.000000, 160.000000)">
            <path d="M249.365851,6538.70769 L249.365851,6538.70769 C249.770764,6539.09744 250.426289,6539.09744 250.830166,6538.70769 L259.393407,6530.44413 C260.202198,6529.66364 260.202198,6528.39747 259.393407,6527.61699 L250.768031,6519.29246 C250.367261,6518.90671 249.720021,6518.90172 249.314072,6519.28247 L249.314072,6519.28247 C248.899839,6519.67121 248.894661,6520.31179 249.302681,6520.70653 L257.196934,6528.32352 C257.601847,6528.71426 257.601847,6529.34685 257.196934,6529.73759 L249.365851,6537.29462 C248.960938,6537.68437 248.960938,6538.31795 249.365851,6538.70769"> 
            </path> 
          </g> 
        </g>
      </symbol>

      <symbol id="cross" viewBox="0 0 24 24">
        <g stroke-width="0"></g>
        <g stroke-linecap="round" stroke-linejoin="round"></g>
        <g>
          <path d="M19 5L4.99998 19M5.00001 5L19 19" stroke="currentColor" stroke-width="1.5" stroke-linecap="round" stroke-linejoin="round">
          </path>
        </g>
      </symbol>
</svg>


<path d="M19 5L4.99998 19M5.00001 5L19 19" stroke="#000000" stroke-width="1.5" stroke-linecap="round" stroke-linejoin="round"></path> </g></svg>